G04*
G04 #@! TF.GenerationSoftware,Altium Limited,Altium Designer,22.8.2 (66)*
G04*
G04 Layer_Color=32768*
%FSLAX42Y42*%
%MOMM*%
G71*
G04*
G04 #@! TF.SameCoordinates,BD579F3B-DF16-4DD5-93A6-3DDDDBFC9B40*
G04*
G04*
G04 #@! TF.FilePolarity,Positive*
G04*
G01*
G75*
%ADD68C,0.05*%
D68*
X4880Y4542D02*
X6850D01*
X4880D02*
Y6152D01*
X6850D01*
Y4542D02*
Y6152D01*
X1146Y5882D02*
X2206D01*
X1146D02*
Y6402D01*
X2206D01*
Y5882D02*
Y6402D01*
X3010Y7572D02*
X3290D01*
X3010Y6297D02*
Y7572D01*
Y6297D02*
X3290D01*
Y7572D01*
X584Y5108D02*
X864D01*
X584Y3833D02*
Y5108D01*
Y3833D02*
X864D01*
Y5108D01*
X5791Y2969D02*
Y3254D01*
X4546D02*
X5791D01*
X4546Y2969D02*
Y3254D01*
Y2969D02*
X5791D01*
X7378Y5397D02*
X7862D01*
X7378Y4331D02*
Y5397D01*
Y4331D02*
X7862D01*
Y5397D01*
X6664Y1452D02*
Y2409D01*
X5655Y1452D02*
Y2409D01*
Y1452D02*
X6664D01*
X5655Y2409D02*
X6664D01*
X6474Y2908D02*
X6759D01*
Y4153D01*
X6474D02*
X6759D01*
X6474Y2908D02*
Y4153D01*
X1256Y1855D02*
X1741D01*
Y2921D01*
X1256D02*
X1741D01*
X1256Y1855D02*
Y2921D01*
X3202Y2984D02*
X3697D01*
Y1893D02*
Y2984D01*
X3202Y1893D02*
X3697D01*
X3202D02*
Y2984D01*
X2770Y814D02*
Y1464D01*
Y814D02*
X3620D01*
Y1464D01*
X2770D02*
X3620D01*
M02*
