G04*
G04 #@! TF.GenerationSoftware,Altium Limited,Altium Designer,22.8.2 (66)*
G04*
G04 Layer_Physical_Order=2*
G04 Layer_Color=16711680*
%FSLAX42Y42*%
%MOMM*%
G71*
G04*
G04 #@! TF.SameCoordinates,BD579F3B-DF16-4DD5-93A6-3DDDDBFC9B40*
G04*
G04*
G04 #@! TF.FilePolarity,Positive*
G04*
G01*
G75*
%ADD42C,1.40*%
%ADD43R,1.35X1.35*%
%ADD44C,1.35*%
%ADD45C,1.31*%
%ADD46C,1.80*%
%ADD47C,1.95*%
%ADD48R,1.50X1.50*%
%ADD49R,1.85X1.85*%
%ADD50C,1.85*%
%ADD51C,2.03*%
%ADD52R,1.65X1.65*%
%ADD53C,1.65*%
%ADD54R,1.59X1.59*%
%ADD55C,1.59*%
%ADD56R,1.98X1.98*%
%ADD57C,1.98*%
%ADD58C,1.60*%
%ADD59R,1.13X1.13*%
%ADD60C,1.13*%
%ADD61R,1.59X1.59*%
%ADD62R,1.35X1.35*%
%ADD63R,1.85X1.85*%
%ADD64C,1.50*%
%ADD65R,1.50X1.50*%
%ADD66C,3.00*%
%ADD67C,1.27*%
D42*
X3150Y6096D02*
D03*
Y5334D02*
D03*
X3708Y5651D02*
D03*
X4470D02*
D03*
X813Y6363D02*
D03*
Y5601D02*
D03*
X3327Y4813D02*
D03*
Y4051D02*
D03*
X2311Y3594D02*
D03*
X3073D02*
D03*
X4089Y3645D02*
D03*
Y4407D02*
D03*
X6655Y1003D02*
D03*
X7417D02*
D03*
X5817Y660D02*
D03*
X5055D02*
D03*
D43*
X7679Y3785D02*
D03*
X6189Y7163D02*
D03*
X6913Y6515D02*
D03*
X5313Y6566D02*
D03*
X2150Y1969D02*
D03*
D44*
X7179Y3785D02*
D03*
X6689Y7163D02*
D03*
X7413Y6515D02*
D03*
X5813Y6566D02*
D03*
X2642Y2506D02*
D03*
X2650Y1968D02*
D03*
D45*
X6465Y5947D02*
D03*
Y4747D02*
D03*
D46*
X5245D02*
D03*
Y5947D02*
D03*
D47*
X6665Y5359D02*
D03*
D48*
X5906Y7938D02*
D03*
X1676Y7709D02*
D03*
X6820Y7938D02*
D03*
X838Y7709D02*
D03*
X737Y2731D02*
D03*
Y2057D02*
D03*
D49*
X1930Y6147D02*
D03*
D50*
X1676D02*
D03*
X1422D02*
D03*
X3531Y2438D02*
D03*
Y2692D02*
D03*
D51*
X1791Y4318D02*
D03*
X2007Y4191D02*
D03*
X1791Y4064D02*
D03*
D52*
X3150Y7464D02*
D03*
X724Y5000D02*
D03*
D53*
X3150Y6404D02*
D03*
X724Y3940D02*
D03*
D54*
X5687Y3111D02*
D03*
D55*
X4651D02*
D03*
X6617Y4049D02*
D03*
D56*
X7566Y5118D02*
D03*
X1553Y2134D02*
D03*
D57*
X7566Y4864D02*
D03*
Y4611D02*
D03*
X1553Y2388D02*
D03*
Y2641D02*
D03*
D58*
X7404Y1664D02*
D03*
X7658D02*
D03*
X5105Y1270D02*
D03*
Y1524D02*
D03*
D59*
X6540Y2327D02*
D03*
D60*
X6287D02*
D03*
X6033D02*
D03*
X5778D02*
D03*
Y1533D02*
D03*
X6033D02*
D03*
X6287D02*
D03*
X6540D02*
D03*
D61*
X6617Y3013D02*
D03*
D62*
X2642Y3006D02*
D03*
D63*
X3531Y2184D02*
D03*
D64*
X2870Y914D02*
D03*
X3520D02*
D03*
Y1364D02*
D03*
D65*
X2870D02*
D03*
D66*
X8200Y300D02*
D03*
Y8700D02*
D03*
X300D02*
D03*
Y300D02*
D03*
D67*
X381Y267D02*
D03*
D03*
M02*
