G04*
G04 #@! TF.GenerationSoftware,Altium Limited,Altium Designer,22.8.2 (66)*
G04*
G04 Layer_Color=16711935*
%FSLAX42Y42*%
%MOMM*%
G71*
G04*
G04 #@! TF.SameCoordinates,BD579F3B-DF16-4DD5-93A6-3DDDDBFC9B40*
G04*
G04*
G04 #@! TF.FilePolarity,Negative*
G04*
G01*
G75*
%ADD14C,1.60*%
%ADD15R,1.55X1.55*%
%ADD16C,1.55*%
%ADD17C,1.51*%
%ADD18C,2.00*%
%ADD19C,2.15*%
%ADD20R,1.70X1.70*%
%ADD21R,2.05X2.05*%
%ADD22C,2.05*%
%ADD23C,2.24*%
%ADD24R,1.85X1.85*%
%ADD25C,1.85*%
%ADD26R,1.79X1.79*%
%ADD27C,1.79*%
%ADD28R,2.18X2.18*%
%ADD29C,2.18*%
%ADD30C,1.80*%
%ADD31R,1.33X1.33*%
%ADD32C,1.33*%
%ADD33R,1.79X1.79*%
%ADD34R,1.55X1.55*%
%ADD35R,2.05X2.05*%
%ADD36C,1.70*%
%ADD37R,1.70X1.70*%
%ADD38C,3.20*%
%ADD39C,1.47*%
D14*
X3150Y6096D02*
D03*
Y5334D02*
D03*
X3708Y5651D02*
D03*
X4470D02*
D03*
X813Y6363D02*
D03*
Y5601D02*
D03*
X3327Y4813D02*
D03*
Y4051D02*
D03*
X2311Y3594D02*
D03*
X3073D02*
D03*
X4089Y3645D02*
D03*
Y4407D02*
D03*
X6655Y1003D02*
D03*
X7417D02*
D03*
X5817Y660D02*
D03*
X5055D02*
D03*
D15*
X7679Y3785D02*
D03*
X6189Y7163D02*
D03*
X6913Y6515D02*
D03*
X5313Y6566D02*
D03*
X2150Y1969D02*
D03*
D16*
X7179Y3785D02*
D03*
X6689Y7163D02*
D03*
X7413Y6515D02*
D03*
X5813Y6566D02*
D03*
X2642Y2506D02*
D03*
X2650Y1968D02*
D03*
D17*
X6465Y5947D02*
D03*
Y4747D02*
D03*
D18*
X5245D02*
D03*
Y5947D02*
D03*
D19*
X6665Y5359D02*
D03*
D20*
X5906Y7938D02*
D03*
X1676Y7709D02*
D03*
X6820Y7938D02*
D03*
X838Y7709D02*
D03*
X737Y2731D02*
D03*
Y2057D02*
D03*
D21*
X1930Y6147D02*
D03*
D22*
X1676D02*
D03*
X1422D02*
D03*
X3531Y2438D02*
D03*
Y2692D02*
D03*
D23*
X1791Y4318D02*
D03*
X2007Y4191D02*
D03*
X1791Y4064D02*
D03*
D24*
X3150Y7464D02*
D03*
X724Y5000D02*
D03*
D25*
X3150Y6404D02*
D03*
X724Y3940D02*
D03*
D26*
X5687Y3111D02*
D03*
D27*
X4651D02*
D03*
X6617Y4049D02*
D03*
D28*
X7566Y5118D02*
D03*
X1553Y2134D02*
D03*
D29*
X7566Y4864D02*
D03*
Y4611D02*
D03*
X1553Y2388D02*
D03*
Y2641D02*
D03*
D30*
X7404Y1664D02*
D03*
X7658D02*
D03*
X5105Y1270D02*
D03*
Y1524D02*
D03*
D31*
X6540Y2327D02*
D03*
D32*
X6287D02*
D03*
X6033D02*
D03*
X5778D02*
D03*
Y1533D02*
D03*
X6033D02*
D03*
X6287D02*
D03*
X6540D02*
D03*
D33*
X6617Y3013D02*
D03*
D34*
X2642Y3006D02*
D03*
D35*
X3531Y2184D02*
D03*
D36*
X2870Y914D02*
D03*
X3520D02*
D03*
Y1364D02*
D03*
D37*
X2870D02*
D03*
D38*
X8200Y300D02*
D03*
Y8700D02*
D03*
X300D02*
D03*
Y300D02*
D03*
D39*
X381Y267D02*
D03*
D03*
M02*
